<?xml version="1.0" encoding="UTF-8"?>
<svg width="220px" height="220px" viewBox="0 0 220 220" version="1.1" xmlns="http://www.w3.org/2000/svg" xmlns:xlink="http://www.w3.org/1999/xlink">
    <!-- Generator: sketchtool 53.2 (72643) - https://sketchapp.com -->
    <title>BA849CF8-A808-4C97-B90B-9E1B6432FDA9</title>
    <desc>Created with sketchtool.</desc>
    <g id="TAF" stroke="none" stroke-width="1" fill="none" fill-rule="evenodd">
        <g id="03-1-importacao" transform="translate(-658.000000, -450.000000)">
            <g id="content" transform="translate(280.000000, 56.000000)">
                <g id="ilustra" transform="translate(144.000000, 316.000000)">
                    <g id="Illustration/-Highlight-/-Empty-state-/-_base" transform="translate(234.000000, 78.000000)">
                        <g id="Empty-state">
                            <rect id="base" fill-opacity="0" fill="#D8D8D8" fill-rule="nonzero" x="0" y="0" width="220" height="220" rx="2"></rect>
                            <g id="Illustration/-Highlight-/-Empty-state-/-Archive" transform="translate(0.000000, 49.054054)">
                                <g id="Archive">
                                    <g id="archive" transform="translate(7.432432, 2.973913)">
                                        <g id="fill" opacity="0.599999964" fill="#9DA7A9">
                                            <path d="M59.222841,138.88708 C109.895723,118.778196 135.873218,108.393969 137.155325,107.7344 C139.078485,106.745046 140.36047,108.411471 140.36047,109.519689 L140.36047,118.510403 C140.36047,120.809813 139.858563,123.302041 137.155325,124.8434 C134.452086,126.38476 62.0637141,165.595666 59.222841,167.066839 C56.3819679,168.538013 55,166.685001 55,164.368796 L55,145.999563 C55,142.700827 56.4076137,140.33 59.222841,138.88708 Z M3.6229479,122.614014 C7.89006414,121.438897 89.8779957,101.055558 92.3835383,100.39256 C94.889081,99.7295621 96.1193518,101.192837 96.1193518,102.056001 L96.1193518,109.223334 C96.1193518,111.761276 94.5410486,112.974126 92.3835383,113.472442 C90.226028,113.970758 34.2908045,129.855303 30.8315298,130.852174 C27.3722551,131.849045 23.3330474,131.994821 20.5132232,131.31777 C17.693399,130.640719 5.10326489,127.925535 2.0896458,127.329093 C-0.92397329,126.73265 -0.644168338,123.78913 3.6229479,122.614014 Z M102.771664,114.558339 C105.54808,115.04745 106.664841,115.372018 108.339316,115.702877 C110.013791,116.033735 110.638543,117.469565 108.339316,118.282019 C106.040089,119.094472 68.5983029,134.224155 63.1776717,136.474423 C57.7570405,138.72469 51.8624466,138.658696 49.2273444,138.133215 C46.5922423,137.607734 36.4700895,135.313043 33.5290527,134.569565 C30.588016,133.826087 32.9614588,131.689509 35.6920067,130.856167 C38.4225546,130.022825 88.1886415,116.086634 92.3595861,115.00879 C96.5305308,113.930946 99.9952492,114.069229 102.771664,114.558339 Z M109.20109,31.2862295 C111.648789,31.7392912 133.341515,35.6869565 136.46304,36.4304296 C139.584565,37.1739026 139.851668,38.6183211 139.942154,40.1478261 C140.03264,41.677331 139.851668,47.7195652 139.942154,50.0023618 C140.03264,52.2851584 139.851668,54.7604203 136.46304,54.4960827 C133.074412,54.2317452 113.597423,51.4033807 109.177574,50.9282609 C104.757726,50.4531411 103.934288,48.3832768 103.934288,46.4545347 L103.934288,34.5421995 C103.934288,31.2195574 106.753392,30.8331678 109.20109,31.2862295 Z M111.362734,52.1120903 C113.919514,52.3302717 122.320128,53.5053927 126.496153,54.0515349 C130.672179,54.5976771 131.2342,56.3536921 128.953791,56.7195652 C126.673383,57.0854383 103.562666,60.0556752 100.760408,60.474005 C97.9581501,60.8923348 93.770587,61.0632463 91.5554946,60.9527837 C89.3404021,60.8423211 78.0227579,60.3437866 74.8131887,60.0325944 C71.6036195,59.7214022 70.7162558,58.0691394 73.104578,57.5000076 C75.4929001,56.9308757 89.3508984,53.9257706 96.6844054,52.4517352 C104.017912,50.9776998 108.805953,51.8939088 111.362734,52.1120903 Z M147.166068,9.12546369 C147.166068,4.95097042 146.870136,-1.55585328 151.430156,0.337311412 C155.990175,2.2304761 201.306362,21.8164904 204.338305,23.0811173 C207.370248,24.3457442 208.851351,26.8910425 208.851351,34.3207228 L208.851351,89.2229214 C208.851351,91.8151151 208.228414,94.0595312 203.863514,96.4663214 C199.498614,98.8731117 156.304428,122.598323 153.867292,123.992606 C151.430156,125.386889 147.166068,124.359494 147.166068,117.596875 L147.166068,9.12546369 Z"></path>
                                        </g>
                                        <path d="M102.771664,114.558339 C99.9952492,114.069229 96.5305308,113.930946 92.3595861,115.00879 C88.1886415,116.086634 38.4225546,130.022825 35.6920067,130.856167 C32.9614588,131.689509 30.588016,133.826087 33.5290527,134.569565 C36.4700895,135.313043 46.5922423,137.607734 49.2273444,138.133215 C51.8624466,138.658696 57.7570405,138.72469 63.1776717,136.474423 C68.5983029,134.224155 106.040089,119.094472 108.339316,118.282019 C110.638543,117.469565 110.013791,116.033735 108.339316,115.702877 C106.664841,115.372018 105.54808,115.04745 102.771664,114.558339 Z" id="light" fill="#FFFFFF" fill-rule="nonzero" opacity="0.799999952"></path>
                                        <path d="M109.20109,31.2862295 C111.648789,31.7392912 133.341515,35.6869565 136.46304,36.4304296 C139.584565,37.1739026 139.851668,38.6183211 139.942154,40.1478261 C140.03264,41.677331 139.851668,47.7195652 139.942154,50.0023618 C140.03264,52.2851584 139.851668,54.7604203 136.46304,54.4960827 C133.074412,54.2317452 113.597423,51.4033807 109.177574,50.9282609 C104.757726,50.4531411 103.934288,48.3832768 103.934288,46.4545347 L103.934288,34.5421995 C103.934288,31.2195574 106.753392,30.8331678 109.20109,31.2862295 Z M147.166068,9.12546369 C147.166068,4.95097042 146.870136,-1.55585328 151.430156,0.337311412 C155.990175,2.2304761 201.306362,21.8164904 204.338305,23.0811173 C207.370248,24.3457442 208.851351,26.8910425 208.851351,34.3207228 C208.851351,41.7504031 208.851351,86.6307277 208.851351,89.2229214 C208.851351,91.8151151 208.228414,94.0595312 203.863514,96.4663214 C199.498614,98.8731117 156.304428,122.598323 153.867292,123.992606 C151.430156,125.386889 147.166068,124.359494 147.166068,117.596875 C147.166068,110.834255 147.166068,13.299957 147.166068,9.12546369 Z M59.222841,138.88708 C109.895723,118.778196 135.873218,108.393969 137.155325,107.7344 C139.078485,106.745046 140.36047,108.411471 140.36047,109.519689 L140.36047,118.510403 C140.36047,120.809813 139.858563,123.302041 137.155325,124.8434 C134.452086,126.38476 62.0637141,165.595666 59.222841,167.066839 C56.3819679,168.538013 55,166.685001 55,164.368796 L55,145.999563 C55,142.700827 56.4076137,140.33 59.222841,138.88708 Z M3.6229479,122.614014 C7.89006414,121.438897 89.8779957,101.055558 92.3835383,100.39256 C94.889081,99.7295621 96.1193518,101.192837 96.1193518,102.056001 L96.1193518,109.223334 C96.1193518,111.761276 94.5410486,112.974126 92.3835383,113.472442 C90.226028,113.970758 34.2908045,129.855303 30.8315298,130.852174 C27.3722551,131.849045 23.3330474,131.994821 20.5132232,131.31777 C17.693399,130.640719 5.10326489,127.925535 2.0896458,127.329093 C-0.92397329,126.73265 -0.644168338,123.78913 3.6229479,122.614014 Z" id="Combined-Shape" fill="#FFFFFF" opacity="0.399999976"></path>
                                    </g>
                                    <path d="M104.564308,82.6186743 C104.556056,82.5864965 104.552012,82.5526677 104.552787,82.5178256 C104.553432,82.4887613 104.557396,82.4605503 104.564308,82.4335468 L104.564308,63.8577118 L103.065298,63.7603353 L103.065298,100.294176 L104.564308,99.9129368 L104.564308,82.6186743 Z M149.206081,83.1389043 L149.206081,57.6294593 L105.564308,63.8189316 L105.564308,82.1684868 L149.206081,83.1389043 Z M149.206081,83.8825662 L105.564308,82.9121488 L105.564308,99.9428588 L149.206081,106.301913 L149.206081,83.8825662 Z M149.206081,38.1880939 L149.206081,8.65390986 L105.307551,19.5877205 L105.307551,33.3730135 L112.671111,31.2160267 C112.778199,31.1846578 112.888084,31.2037304 112.97534,31.2593324 C113.020798,31.2503044 113.068913,31.2496967 113.117784,31.25908 L149.206081,38.1880939 Z M149.206081,38.9451437 L113.419354,32.0740319 L113.419354,52.1247117 L149.206081,56.8670681 L149.206081,38.9451437 Z M112.676111,52.1196974 L112.676111,31.9892621 L71.7403927,43.9804466 L71.7403927,60.939896 L112.676111,52.1196974 Z M102.065298,34.3227577 L102.065298,16.1233681 C102.065298,15.9578802 102.174657,15.8123193 102.333566,15.7662948 L156.402899,0.106281423 C156.507277,0.00394748893 156.667006,-0.0311036353 156.809657,0.0300898843 L171.03124,6.13076695 L179.604023,9.78043534 C179.648429,9.79934023 179.687255,9.82587075 179.719626,9.85785148 L219.774844,27.0404645 C219.911442,27.0990615 220,27.233438 220,27.3821138 L220,96.842159 C220,96.9779593 219.925972,97.1029531 219.806907,97.168192 L157.31555,131.408669 C157.273437,131.582288 157.06916,131.713998 156.823506,131.713998 C156.792018,131.713998 156.76121,131.711834 156.731336,131.707695 C156.673792,131.718431 156.613966,131.715522 156.556816,131.698443 L143.681317,127.850692 L64.224005,170.867157 C64.1382206,170.913599 64.0376218,170.924441 63.943917,170.897343 L0.268414619,152.483377 C0.109432849,152.437402 0,152.291806 0,152.126262 L0,126.795518 C0,126.625492 0.115320067,126.477136 0.28005135,126.435241 L102.065298,100.548503 L102.065298,63.6953748 L71.5994528,61.7162973 C71.5610837,61.7138048 71.5257748,61.7066403 71.4935842,61.6955925 C71.454574,61.7095037 71.4125569,61.7170787 71.3687711,61.7170787 C71.1635302,61.7170787 70.9971495,61.5506454 70.9971495,61.3453395 L70.9971495,43.7019546 C70.9971495,43.5368854 71.1059667,43.3915871 71.2643332,43.3451973 L102.065298,34.3227577 Z M102.808541,34.1050415 L104.564308,33.5907296 L104.564308,19.2971912 C104.564308,19.1264805 104.68054,18.9777119 104.84614,18.9364658 L149.487914,7.81753549 C149.722376,7.75913801 149.949324,7.93656377 149.949324,8.17826087 L149.949324,106.635717 C149.957854,106.667 149.962389,106.699846 149.962389,106.733628 L149.962389,124.228754 C149.962389,124.365226 149.887633,124.490727 149.767649,124.555684 L144.60482,127.350727 L156.323506,130.852773 L156.323506,0.903290627 L102.808541,16.4027432 L102.808541,34.1050415 Z M104.564308,100.680068 L1.50212313,126.891567 L34.219353,134.120768 C34.2611872,134.081218 34.3128576,134.050835 34.372008,134.033869 L104.564308,113.900828 L104.564308,100.680068 Z M105.564308,100.694183 L105.564308,113.834896 L121.935748,117.302132 C121.97924,117.311343 122.019332,117.327816 122.055024,117.350013 L148.117431,106.89461 L105.564308,100.694183 Z M105.321126,114.543353 C105.246063,114.576826 105.158208,114.596071 105.064308,114.596071 C105.008431,114.596071 104.954695,114.589256 104.904521,114.576684 L35.6576032,134.438564 L63.8706035,140.67251 C63.8804192,140.674679 63.890072,140.677225 63.8995478,140.68013 L120.852098,117.832589 L105.321126,114.543353 Z M149.219146,109.786512 C149.210628,109.755273 149.206081,109.722395 149.206081,109.688455 L149.206081,107.258917 L64.1620698,141.375853 L64.1620698,170.055308 L149.219146,124.007252 L149.219146,109.786512 Z M157.323506,130.556605 L219.256757,96.6219264 L219.256757,27.6271772 L170.739245,6.81446746 L157.323506,1.10302001 L157.323506,130.556605 Z M63.8995478,140.68013 L63.5998625,140.800354 C63.4093696,140.876774 63.3168753,141.093198 63.3932708,141.283751 C63.4003086,141.301305 63.4085342,141.318028 63.417818,141.333863 L0.743243243,127.485285 L0.743243243,151.846767 L63.4188265,169.971572 L63.4188265,141.334086 L63.8995478,140.68013 Z M112.975076,52.815811 L74.3079844,61.1472006 L105.03424,63.1431946 L146.514196,57.2603209 L112.975076,52.815811 Z M124.988121,18.589826 C124.947275,18.5879201 124.906182,18.5869565 124.864865,18.5869565 C123.428178,18.5869565 122.263514,19.7519895 122.263514,21.1891304 C122.263514,22.6262714 123.428178,23.7913043 124.864865,23.7913043 C124.906187,23.7913043 124.947283,23.7903406 124.988134,23.7884343 C124.219988,23.1653129 123.75,22.2195192 123.75,21.1891304 C123.75,20.1585491 124.220171,19.2128095 124.988121,18.589826 Z M125.979628,18.8373235 C125.079204,19.2653369 124.493243,20.1742056 124.493243,21.1891304 C124.493243,22.1996286 125.074075,23.105236 125.968559,23.5356432 L125.962031,23.5492178 C126.850427,23.1352527 127.466216,22.2341269 127.466216,21.1891304 C127.466216,20.1510477 126.858549,19.2549383 125.979628,18.8373235 Z M124.864865,24.5347826 C123.017696,24.5347826 121.52027,23.0368831 121.52027,21.1891304 C121.52027,19.3413778 123.017696,17.8434783 124.864865,17.8434783 C126.712033,17.8434783 128.209459,19.3413778 128.209459,21.1891304 C128.209459,23.0368831 126.712033,24.5347826 124.864865,24.5347826 Z M90.7989315,40.8941738 C90.7580854,40.8922679 90.716993,40.8913043 90.6756757,40.8913043 C89.238989,40.8913043 88.0743243,42.0563373 88.0743243,43.4934783 C88.0743243,44.9306192 89.238989,46.0956522 90.6756757,46.0956522 C90.7169974,46.0956522 90.7580941,46.0946884 90.7989445,46.0927821 C90.030799,45.4696607 89.5608108,44.523867 89.5608108,43.4934783 C89.5608108,42.462897 90.030982,41.5171573 90.7989315,40.8941738 Z M91.7904393,41.1416713 C90.8900152,41.5696847 90.3040541,42.4785535 90.3040541,43.4934783 C90.3040541,44.5039765 90.8848863,45.4095838 91.7793697,45.8399911 L91.7728421,45.8535656 C92.6612382,45.4396006 93.277027,44.5384748 93.277027,43.4934783 C93.277027,42.4553956 92.6693594,41.5592861 91.7904393,41.1416713 Z M90.6756757,46.8391304 C88.8285071,46.8391304 87.3310811,45.3412309 87.3310811,43.4934783 C87.3310811,41.6457256 88.8285071,40.1478261 90.6756757,40.1478261 C92.5228443,40.1478261 94.0202703,41.6457256 94.0202703,43.4934783 C94.0202703,45.3412309 92.5228443,46.8391304 90.6756757,46.8391304 Z M31.525559,136.856481 C31.3041002,136.819334 31.0766046,136.8 30.8445946,136.8 C28.5869441,136.8 26.7567568,138.630766 26.7567568,140.88913 C26.7567568,143.147495 28.5869441,144.978261 30.8445946,144.978261 C31.0766128,144.978261 31.3041164,144.958925 31.5255827,144.921776 C30.1935097,144.04089 29.3581081,142.540227 29.3581081,140.88913 C29.3581081,139.237681 30.1938833,137.737108 31.525559,136.856481 Z M32.397067,137.105206 L32.4386162,137.192768 C31.0228704,137.864979 30.1013514,139.293711 30.1013514,140.88913 C30.1013514,142.47698 31.0141077,143.900109 32.4195898,144.576398 L32.3672914,144.685155 C33.8708206,144.081105 34.9324324,142.609133 34.9324324,140.88913 C34.9324324,139.180504 33.8848175,137.716639 32.397067,137.105206 Z M30.8445946,145.721739 C28.1764622,145.721739 26.0135135,143.558107 26.0135135,140.88913 C26.0135135,138.220154 28.1764622,136.056522 30.8445946,136.056522 C33.512727,136.056522 35.6756757,138.220154 35.6756757,140.88913 C35.6756757,143.558107 33.512727,145.721739 30.8445946,145.721739 Z M124.988121,64.313739 C124.947275,64.3118331 124.906182,64.3108696 124.864865,64.3108696 C123.428178,64.3108696 122.263514,65.4759025 122.263514,66.9130435 C122.263514,68.3501844 123.428178,69.5152174 124.864865,69.5152174 C124.906187,69.5152174 124.947283,69.5142536 124.988134,69.5123473 C124.219988,68.8892259 123.75,67.9434322 123.75,66.9130435 C123.75,65.8824622 124.220171,64.9367225 124.988121,64.313739 Z M125.979628,64.5612365 C125.079204,64.98925 124.493243,65.8981187 124.493243,66.9130435 C124.493243,67.9235417 125.074075,68.829149 125.968559,69.2595563 L125.962031,69.2731308 C126.850427,68.8591658 127.466216,67.95804 127.466216,66.9130435 C127.466216,65.8749608 126.858549,64.9788513 125.979628,64.5612365 Z M124.864865,70.2586957 C123.017696,70.2586957 121.52027,68.7607962 121.52027,66.9130435 C121.52027,65.0652908 123.017696,63.5673913 124.864865,63.5673913 C126.712033,63.5673913 128.209459,65.0652908 128.209459,66.9130435 C128.209459,68.7607962 126.712033,70.2586957 124.864865,70.2586957 Z M124.988121,85.5028694 C124.947275,85.5009636 124.906182,85.5 124.864865,85.5 C123.428178,85.5 122.263514,86.6650329 122.263514,88.1021739 C122.263514,89.5393149 123.428178,90.7043478 124.864865,90.7043478 C124.906187,90.7043478 124.947283,90.7033841 124.988134,90.7014778 C124.219988,90.0783564 123.75,89.1325627 123.75,88.1021739 C123.75,87.0715926 124.220171,86.125853 124.988121,85.5028694 Z M125.979628,85.750367 C125.079204,86.1783804 124.493243,87.0872491 124.493243,88.1021739 C124.493243,89.1126721 125.074075,90.0182795 125.968559,90.4486867 L125.962031,90.4622612 C126.850427,90.0482962 127.466216,89.1471704 127.466216,88.1021739 C127.466216,87.0640912 126.858549,86.1679818 125.979628,85.750367 Z M124.864865,91.4478261 C123.017696,91.4478261 121.52027,89.9499266 121.52027,88.1021739 C121.52027,86.2544212 123.017696,84.7565217 124.864865,84.7565217 C126.712033,84.7565217 128.209459,86.2544212 128.209459,88.1021739 C128.209459,89.9499266 126.712033,91.4478261 124.864865,91.4478261 Z" id="border" fill="#9DA7A9"></path>
                                </g>
                            </g>
                            <g id="Illustration/-Highlight-/-Empty-state-/-Character" transform="translate(71.722973, 0.000000)">
                                <g id="Character">
                                    <g id="opacity" opacity="0.25" transform="translate(47.892216, 24.966981)" fill="#4A5C60">
                                        <path d="M5.94011976,34.7970836 C4.51473031,35.1819611 3.7156855,35.4216016 2.69397338,35.6891583 C1.67226126,35.9567151 0.286600627,35.4681695 0.286600627,34.0222492 C0.286600627,32.5763289 0.392101537,30.7276055 2.1944602,30.1839623 C3.99681886,29.640319 5.6248772,32.0471698 6.54758257,32.6771441 C7.47028794,33.3071184 7.36550922,34.4122061 5.94011976,34.7970836 Z M20.7824429,8.75707547 C22.7973487,7.83068347 27.7037086,7.82735137 29.5882064,6.34118799 C30.8445383,5.35041241 32.0966863,4.16385517 33.3446505,2.78151628 C35.1705294,0.529955693 36.882882,-0.185114765 38.4817085,0.636304908 C40.8799481,1.86843442 42.3960458,5.22843724 42.7228902,6.70754717 C43.0497345,8.1866571 43.338873,10.4339623 44.6170647,9.31594436 C45.8952564,8.19792646 49.1745766,9.16397028 50.9092265,10.2456711 C52.6438763,11.3273718 53.3316453,12.548786 53.3316453,14.0992186 C53.3316453,15.6496512 53.3316453,23.3411884 53.3316453,25.9511314 C53.3316453,28.5610745 52.4025952,27.9481132 51.2969803,27.9481132 C50.1913653,27.9481132 49.7369012,28.926471 48.69564,29.0924306 C47.6543787,29.2583901 42.8178799,27.2028302 41.0105375,26.1619409 C39.2031952,25.1210517 38.4817085,24.9669811 37.1763251,25.3395228 C35.8709417,25.7120644 32.8639011,27.2028302 30.4273426,27.19295 C27.9907841,27.1830697 25.9559377,21.6132649 24.6066851,18.7625364 C23.2574324,15.9118079 20.1791495,13.7876477 18.5436588,12.2971698 C16.908168,10.8066919 18.7675372,9.68346748 20.7824429,8.75707547 Z" id="t-shirt"></path>
                                    </g>
                                    <path d="M100.817607,58.5988139 C102.277168,59.1480416 106.316677,61.0780262 104.723153,65.0903818 C103.129628,69.1027374 100.476261,73.1360177 101.802944,75.4168093 C103.129628,77.697601 109.588747,81.3597864 112.83589,77.3769983 C116.083033,73.3942102 115.21921,68.8423347 117.156075,66.8647691 C117.612783,66.3984648 118.220295,66.0820026 118.983522,66.0820026 C119.355169,66.0820026 118.860042,63.9715314 118.860042,63.1077858 C118.860042,59.8662777 110.459797,57.9391134 107.735007,58.0269061 C106.449535,58.068324 108.808717,59.6175468 107.735007,59.6175468 C105.754251,59.6175468 100.046622,58.3086948 100.817607,58.5988139 Z" id="hand" fill="#FFFFFF" fill-rule="nonzero"></path>
                                    <path d="M99.8454224,35.968487 C98.0524847,34.2920242 95.4660783,32.9485315 92.0832754,31.9445502 L92.0920978,31.914602 C91.561936,32.3958619 91.0770093,32.8359455 90.6373152,33.2348551 C90.6712774,33.8408773 90.6768667,34.4674668 90.6540422,35.1145583 C90.6467875,35.3202337 90.4747928,35.4810635 90.2698814,35.4737818 C90.0649699,35.4665 89.9047374,35.2938642 89.9119921,35.0881888 C89.9264496,34.678308 89.9291706,34.2773739 89.920143,33.8853676 C88.7910338,34.9092828 88.0461527,35.5834456 87.6854361,35.9079136 C86.4841442,36.9884869 85.3126939,37.729809 84.1683797,38.1283526 C83.9746699,38.1958181 83.7631485,38.0928915 83.6959336,37.8984596 C83.6287186,37.7040276 83.7312629,37.4917178 83.9249727,37.4242522 C84.9680805,37.060957 86.0572886,36.3716798 87.1898914,35.3528929 C87.5959707,34.9876208 88.490392,34.1778258 89.8730642,32.9235905 C89.5194298,28.264322 87.3710705,24.9652652 83.405344,22.9903605 C78.1907789,27.1528532 73.9036805,31.5821343 73.5192816,34.0197003 C73.1870678,36.1263482 73.6172369,37.6608027 74.6015625,38.7656475 C74.7382398,38.9190593 74.7251357,39.154636 74.5722937,39.2918227 C74.4194517,39.4290095 74.18475,39.4158565 74.0480728,39.2624448 C72.9127872,37.9881568 72.4193024,36.2278487 72.7858971,33.9031833 C72.9190601,33.0587643 73.4668423,32.0084104 74.327537,30.8291002 C69.7054825,31.4356501 65.5841735,32.7483869 61.9608536,34.76732 C67.3508223,36.8616686 71.5878955,42.5364171 74.6928468,51.7562632 C74.7585054,51.9512301 74.6542674,52.1627074 74.4600246,52.2286108 C74.2657817,52.2945143 74.0550899,52.1898876 73.9894313,51.9949207 C70.8357408,42.6303485 66.537593,37.0635089 61.1181839,35.2549826 C59.8979335,35.9879749 58.7366525,36.8046279 57.6342286,37.7049419 C57.4635968,37.8796256 57.2753343,38.0410359 57.0701308,38.1864176 L60.8764921,38.1926758 C61.0817347,38.1930133 61.2483903,38.3599598 61.2487278,38.5655612 C61.2490652,38.7711627 61.0829568,38.937562 60.8777141,38.9372246 L56.1571891,38.9294633 C56.1001818,38.9430411 56.0407342,38.9428692 55.9839996,38.9291785 L55.0889102,38.9277069 C54.8518292,38.9508404 54.6124538,38.9533085 54.3731835,38.934867 C54.3542964,38.9334113 54.3358434,38.9305661 54.3179169,38.9264392 L46.240277,38.9131583 C46.2007039,38.9130932 46.1625654,38.9068343 46.1267769,38.8952986 C46.0875903,38.9200366 46.0480345,38.9444034 46.0081113,38.9683916 C45.3665806,39.3538621 44.6732405,39.6152616 43.9578437,39.7493275 L43.9578437,46.1141042 C44.8958491,46.2956169 45.6045968,47.1212155 45.6045968,48.1128768 C45.6045968,49.2376409 44.6928216,50.1487719 43.5689098,50.1487719 C42.444998,50.1487719 41.5332228,49.2376409 41.5332228,48.1128768 C41.5332228,47.2011587 42.1323045,46.4298081 42.9578437,46.1703094 L42.9578437,39.8532259 C42.8046574,39.8565934 42.651103,39.8542784 42.4974559,39.8462507 C42.2924577,39.8355399 42.1343955,39.6604103 42.144414,39.4550878 C42.1544326,39.2497652 42.3287382,39.0920011 42.5337364,39.1027119 C43.609696,39.1589286 44.6797823,38.8970602 45.6242622,38.3295594 C48.2066192,36.7779228 49.0428442,33.4290495 47.4931518,30.8499282 C45.9434593,28.2708069 42.5939959,27.436949 40.0116389,28.9885856 C38.9593793,29.620847 38.1700409,30.5685992 37.7355521,31.6884035 C37.679934,31.8317476 37.5418556,31.9257151 37.3881623,31.9248152 C32.5834859,31.8966844 28.8834988,30.9362172 25.702067,28.4060505 C22.0978469,33.901914 18.3967556,37.4776004 14.5951741,39.1145973 C17.8803732,45.689492 22.193967,51.2125168 26.7338919,55.0853323 C30.5749474,58.3619722 34.1976117,60.0470135 35.7565196,59.525979 C37.0904536,59.0801376 38.2868982,58.2325971 39.5188663,56.9314902 C40.4384548,55.9602938 40.8348953,55.4474325 42.8060045,52.7801504 C43.0898038,52.3961165 43.3155553,52.0934275 43.5377616,51.8001004 C43.5898633,51.6580906 43.7260979,51.556993 43.8861224,51.5572561 L53.8499446,51.5736383 C54.0551872,51.5739757 54.2218427,51.7409222 54.2221802,51.9465237 C54.2225177,52.1521251 54.0564092,52.3185245 53.8511666,52.318187 L50.2229613,52.3122217 C51.7073151,53.8880073 53.1699796,55.0706215 54.5526204,55.9163399 C55.0624122,56.2281637 55.5234959,56.4702309 55.9271557,56.6508528 C56.0666784,56.7132838 56.1885658,56.7634623 56.2917249,56.8024245 C56.3511678,56.8248755 56.3896939,56.8381808 56.4062079,56.8433757 C56.6018638,56.9049237 56.7107651,57.1140201 56.6494457,57.3104055 C56.5881262,57.5067908 56.3798065,57.6160981 56.1841505,57.5545501 C56.0782712,57.5212433 55.8888719,57.4497091 55.6248249,57.3315584 C55.1925449,57.1381301 54.703376,56.8813182 54.1662275,56.5527612 C52.6412079,55.6199541 51.0309307,54.2999314 49.4068283,52.5264226 C49.3557114,52.4706033 49.3247682,52.4033549 49.3136195,52.3337106 C49.3114118,52.3364286 49.3091596,52.3391242 49.306863,52.3417965 C47.0569643,54.9596958 46.1904431,57.4768028 46.6749918,59.9115198 C46.7151567,60.1133368 46.5847194,60.3096233 46.383652,60.3499379 C46.1825845,60.3902525 45.9870271,60.259329 45.9468622,60.057512 C45.4419822,57.5206366 46.257759,54.9326714 48.3668862,52.30917 L44.0919851,52.3021414 C43.8843038,52.5767989 43.6699001,52.8644618 43.4038923,53.2244204 C41.4102698,55.9221672 41.0084442,56.4419951 40.0589167,57.4448107 C38.7498556,58.8273371 37.4566653,59.7434106 35.9938375,60.2323322 C34.1018907,60.8646785 30.2806637,59.0872781 26.2530908,55.6515281 C23.5663765,53.3596072 20.9610711,50.5037498 18.5960042,47.2028785 C18.3333344,47.3919527 18.0619399,47.5707367 17.7822206,47.7388089 C12.2881757,51.0399642 5.15923609,49.2651956 1.85956527,43.7736211 C-1.29579121,38.5222261 0.187817629,31.7449303 5.17809942,28.2772753 C5.09104737,28.1413937 5.00582223,28.004062 4.92244783,27.8653037 C0.203451182,20.0115744 2.74892574,9.81758173 10.6067957,5.09609715 C16.5571451,1.52076652 24.0218965,2.04975221 29.3819287,6.24031014 C30.3579144,4.51181941 31.7655976,3.05484572 33.5086654,2.00750488 C39.0027104,-1.29365037 46.13165,0.48111824 49.4313208,5.97269268 C50.7210781,8.1192094 51.2661632,10.5730422 51.0389509,13.0110324 C54.6856328,13.3466128 57.9941266,15.3761001 59.923592,18.5872699 C62.6750197,23.1664144 61.9254389,28.991175 58.223837,32.7246907 C58.8355742,33.7514809 58.9485112,34.9376453 58.6333442,36.0007647 C59.3174933,35.5082666 60.0218043,35.0446101 60.7462554,34.6097951 C60.8043091,34.5345099 60.8891306,34.4845611 60.9819677,34.4697564 C65.0248329,32.0923322 69.6873735,30.6024183 74.965848,30.000027 C76.7783481,27.7604808 79.5436093,25.1545065 82.65485,22.6417896 C82.0792107,22.3927042 81.4692244,22.1685835 80.824832,21.969334 C80.6288793,21.9087444 80.5189634,21.7001836 80.579328,21.5035004 C80.6396926,21.3068172 80.8474788,21.1964915 81.0434314,21.2570811 C81.8490168,21.5061723 82.6042919,21.7934501 83.309158,22.1187572 C89.8561049,16.9385447 97.7096414,12.2971698 101.449371,12.2971698 C105.166673,12.2971698 107.096544,13.5953386 108.165591,17.0741616 C109.160479,20.3116615 109.464399,25.3502267 109.464399,36.1782503 L109.464399,53.3106541 C111.460216,53.5076209 113.426947,54.1362518 115.039165,55.1925386 C117.830677,57.0214711 119.421279,59.9812723 119.421279,64.0179487 C119.421279,67.9618254 118.696101,71.2673966 117.451489,73.7004524 C116.394566,75.7666013 115.00739,77.0543523 113.847372,77.1136561 C112.947463,77.1596624 112.26999,76.8455834 111.86432,76.1931249 C110.997344,76.882864 110.12072,77.2127279 109.360082,76.9842364 C107.836643,76.5266041 107.165351,75.5053409 107.405589,74.0355011 C107.112846,74.0246311 106.820525,73.9565097 106.532253,73.8251043 C105.429952,73.3226317 105.143227,72.4915115 105.48842,71.2382636 C105.680738,70.5400393 107.148852,67.1997783 107.174894,67.1354719 C107.35425,66.6925846 107.517344,66.263683 107.66839,65.8336471 C108.633835,63.0849692 108.207608,60.2838988 106.372852,57.3994949 C106.262512,57.2260313 106.313162,56.9956299 106.485982,56.8848791 C106.658801,56.7741284 106.888347,56.8249672 106.998686,56.9984308 C108.951392,60.0682617 109.413669,63.1062474 108.368661,66.0814472 C108.213549,66.5230601 108.046326,66.962816 107.862754,67.4161151 C107.815108,67.5337695 106.379456,70.8001722 106.204088,71.4368586 C105.948791,72.3637329 106.103066,72.8109239 106.839285,73.1465217 C108.555466,73.9288253 110.814486,71.2628657 111.669382,67.6536924 C112.202922,65.4012107 112.468789,63.6611621 112.468789,62.4420282 C112.468789,62.2362239 112.635007,62.0693866 112.840046,62.0693866 C113.045086,62.0693866 113.211304,62.2362239 113.211304,62.4420282 C113.211304,63.7301512 112.937521,65.5220075 112.391761,67.8260787 C111.664982,70.8943717 109.976776,73.4038321 108.181987,73.9338153 C107.896674,75.1653237 108.337026,75.8989724 109.572971,76.2702432 C110.160488,76.4467299 110.907224,76.0889719 111.670384,75.3954517 C111.704814,75.3390094 111.754335,75.2914288 111.815732,75.2595138 C113.291586,73.8403309 114.79489,71.2172813 115.298995,68.8173921 C115.786492,66.4965692 115.975756,64.5161942 115.869021,62.8788201 C115.855633,62.673455 116.010644,62.4960809 116.215246,62.4826439 C116.419849,62.4692069 116.596564,62.6247953 116.609951,62.8301604 C116.721565,64.5423771 116.526016,66.5885209 116.025537,68.9711449 C115.504517,71.4515625 114.033447,74.1227499 112.432388,75.6891251 C112.687003,76.1864231 113.125901,76.404291 113.809603,76.369338 C114.644323,76.3266644 115.842285,75.2145659 116.790955,73.3600372 C117.979127,71.0373136 118.678764,67.8481674 118.678764,64.0179487 C118.678764,60.232583 117.214416,57.5077158 114.633305,55.816633 C112.49867,54.418071 109.669959,53.8146908 107.045826,54.0317598 C103.739681,54.3052449 102.18357,54.1960443 100.450859,53.6967637 C100.220129,53.6302789 99.345459,53.3613101 99.1337234,53.2991397 C97.889495,52.9338063 97.0406719,53.1346886 96.5002401,53.8797565 C96.3795572,54.0461363 96.1473479,54.0828162 95.9815861,53.9616835 C95.8158243,53.8405507 95.7792805,53.6074757 95.8999634,53.441096 C96.6439472,52.4154005 97.8203626,52.1369902 99.3421958,52.5838346 C99.4310409,52.6099215 99.6279938,52.6697542 99.8454224,52.7358911 L99.8454224,35.968487 Z M99.8454224,34.9748577 L99.8454224,24.871764 C96.9648678,27.4894196 94.5857079,29.6506697 92.7078481,31.3556003 C95.697025,32.284547 98.0768674,33.4895127 99.8454224,34.9748577 Z M100.82236,53.0272939 C102.39608,53.4591198 103.871869,53.5465006 106.98484,53.2889949 C107.557519,53.2416227 108.139224,53.2311013 108.721884,53.2573312 L108.721884,36.1782503 C108.721884,16.4029109 107.689211,13.0424528 101.449371,13.0424528 C97.9407042,13.0424528 90.409769,17.5027118 84.0472368,22.482983 C87.892227,24.5099094 90.0696192,27.7921456 90.5606305,32.2997783 C93.194638,29.9096136 97.2643529,26.2125666 102.769315,21.209054 C102.921301,21.0709125 103.15608,21.0825949 103.293709,21.2351475 C103.431337,21.3877001 103.419698,21.6233543 103.267712,21.7614958 C102.421364,22.5307496 101.608947,23.2691171 100.830459,23.9765999 C100.840233,24.0056776 100.845422,24.0361101 100.845422,24.0674459 L100.845422,52.9150943 C100.845422,52.9541928 100.837343,52.9918849 100.82236,53.0272939 Z M108.747055,53.2584871 C108.98306,53.2695397 109.219204,53.2866211 109.454949,53.3097247 C109.417029,53.1443297 109.269435,53.0209942 109.093142,53.0209942 C108.935595,53.0209942 108.800968,53.1194944 108.747055,53.2584871 Z M57.1223966,37.1621816 C58.150719,36.0906145 58.3798238,34.4259093 57.5792987,33.0936117 C57.5387138,33.0260671 57.4959963,32.9602187 57.4512123,32.8961255 C57.3459895,32.7455344 57.3670858,32.5444762 57.4923406,32.4194497 C57.5091615,32.3900221 57.5303227,32.3624393 57.555812,32.3376432 C61.1405785,28.8503559 61.8955966,23.3109067 59.2871325,18.9696933 C57.408487,15.8431022 54.1332512,13.9141486 50.5558555,13.7220529 C50.3508719,13.7110459 50.1930614,13.5356888 50.2033758,13.3303819 C50.207338,13.2515161 50.2355323,13.1797031 50.2803765,13.1217858 C50.5381875,10.7808292 50.0339432,8.41729483 48.7948612,6.35511616 C45.7075658,1.21699377 39.0356819,-0.443989606 33.8925146,2.64633711 C32.1230884,3.70951559 30.723923,5.22202306 29.8079102,7.02078194 C29.7147673,7.20368498 29.4909978,7.27583043 29.308107,7.18192329 C29.2258393,7.1396821 29.1658561,7.07103758 29.1332326,6.9916432 C24.0004882,2.8388605 16.7527484,2.27270825 10.9906448,5.73492939 C3.48365247,10.2455854 1.05228615,19.982603 5.55890738,27.4828803 C5.6859626,27.6943357 5.81750019,27.9023012 5.95342853,28.1066892 C6.02385902,28.2125917 6.03320159,28.3412744 5.98977476,28.4509485 C5.98336006,28.5642118 5.92551548,28.672961 5.82379212,28.7400592 C0.976596237,31.9373395 -0.502125913,38.4014369 2.49602482,43.3911977 C5.58332022,48.5293201 12.2552041,50.1903034 17.3983715,47.0999767 C17.6623715,46.9413495 17.918391,46.7725891 18.1660649,46.594094 C16.6202072,44.3733244 15.1838729,41.9607155 13.9031386,39.390767 C12.429172,39.9326301 10.9401624,40.1847418 9.43590084,40.1460333 C9.23070943,40.1407532 9.06809535,39.9698547 9.0726921,39.7643208 C9.07728886,39.5587868 9.24735577,39.396449 9.45254717,39.4017291 C14.794827,39.5391995 20.0230673,35.7328025 25.1262091,27.9259638 C23.4670904,26.4777241 21.9444727,24.5747492 20.4702532,22.121236 C20.3642562,21.9448273 20.4208049,21.7162114 20.5965584,21.6106081 C20.7723118,21.5050048 21.0007157,21.5624038 21.1067127,21.7388125 C25.331092,28.7693601 29.8798568,31.0848085 37.1410337,31.1779574 C37.6507725,30.0100372 38.5089734,29.0220061 39.6277898,28.3497534 C42.5610244,26.5872882 46.3675435,27.5349314 48.1296113,30.4675047 C49.6589858,33.0128113 49.1450405,36.2159779 47.0647539,38.1699671 L55.0491296,38.1830947 C55.528947,38.1312293 55.9965232,37.9758193 56.4229787,37.719579 C56.4728699,37.6896013 56.5217074,37.6585395 56.5694792,37.6264419 C56.7521525,37.4693556 56.9364584,37.3146022 57.1223966,37.1621816 Z M30.2768631,47.1934186 C30.4677568,47.1185214 30.6836256,47.213026 30.7590197,47.4045005 C30.8344137,47.595975 30.7407828,47.8119119 30.5498892,47.8868091 C29.3959903,48.3395419 28.3189434,48.3502502 27.3402445,47.9084845 C27.2352391,47.8610871 27.1579042,47.7677212 27.1308141,47.6556409 L25.626738,41.4327904 C25.5784031,41.2328134 25.7009225,41.0319807 25.9003928,40.9842181 C26.099863,40.9364555 26.3007488,41.0598496 26.3490837,41.2598266 L27.8086359,47.2984672 C28.5517225,47.5819497 29.3686895,47.549741 30.2768631,47.1934186 Z M43.9148329,37.9083386 C43.5208621,38.1450601 43.0097205,38.0178101 42.7731662,37.6241176 C42.5366118,37.2304251 42.6642232,36.7193736 43.058194,36.482652 C43.4521648,36.2459305 43.9633064,36.3731805 44.1998607,36.766873 C44.436415,37.1605655 44.3088037,37.671617 43.9148329,37.9083386 Z M43.5689098,49.4034889 C44.2834761,49.4034889 44.8620818,48.8252919 44.8620818,48.1128768 C44.8620818,47.4004617 44.2834761,46.8222648 43.5689098,46.8222648 C42.8543435,46.8222648 42.2757377,47.4004617 42.2757377,48.1128768 C42.2757377,48.8252919 42.8543435,49.4034889 43.5689098,49.4034889 Z M33.9527545,52.2552634 L38.384053,47.3547636 C38.5216175,47.2026332 38.7566134,47.1914261 38.908931,47.3297317 C39.0612486,47.4680373 39.0732083,47.7034821 38.9356438,47.8556124 L34.5043453,52.7561123 C34.3667808,52.9082426 34.1317849,52.9194497 33.9794673,52.7811441 C33.8271497,52.6428385 33.81519,52.4073937 33.9527545,52.2552634 Z M31.453747,40.0018174 C31.0563914,40.2405727 30.5624159,40.1481072 30.3504219,39.7952899 C30.1384279,39.4424726 30.2886931,38.9629082 30.6860488,38.7241529 C31.0834044,38.4853975 31.5773799,38.577863 31.7893739,38.9306803 C32.0013679,39.2834976 31.8511027,39.763062 31.453747,40.0018174 Z M25.002574,44.7475452 C24.6052184,44.9863006 24.1112429,44.8938351 23.8992489,44.5410178 C23.6872548,44.1882005 23.8375201,43.7086361 24.2348757,43.4698808 C24.6322314,43.2311254 25.1262069,43.3235909 25.3382009,43.6764082 C25.5501949,44.0292255 25.3999296,44.5087899 25.002574,44.7475452 Z" id="border" fill="#4A5C60"></path>
                                </g>
                            </g>
                        </g>
                    </g>
                </g>
            </g>
        </g>
    </g>
</svg>